<?xml version="1.0" standalone="no"?>
<!DOCTYPE svg PUBLIC "-//W3C//DTD SVG 20010904//EN"
 "http://www.w3.org/TR/2001/REC-SVG-20010904/DTD/svg10.dtd">
<svg version="1.0" xmlns="http://www.w3.org/2000/svg"
 width="185.000000pt" height="185.000000pt" viewBox="0 0 185.000000 185.000000"
 preserveAspectRatio="xMidYMid meet">
<metadata>
Created by potrace 1.11, written by Peter Selinger 2001-2013
</metadata>
<g transform="translate(0.000000,185.000000) scale(0.100000,-0.100000)"
fill="#000000" stroke="none">
<path d="M460 1565 c-1 -5 -9 -52 -18 -104 -20 -110 -34 -127 -129 -147 -35
-7 -47 -13 -30 -13 37 -1 100 -34 125 -66 12 -15 25 -55 32 -98 6 -39 15 -83
20 -97 l8 -25 1 27 c2 61 33 173 54 197 26 28 92 60 127 62 14 0 -4 7 -39 14
-100 22 -111 39 -141 214 -4 25 -9 42 -10 36z m49 -222 c17 -21 31 -42 31 -47
0 -13 -69 -96 -80 -96 -16 0 -72 91 -66 107 12 29 51 72 68 72 9 1 30 -16 47
-36z"/>
<path d="M1131 1513 c-1 -46 -32 -235 -57 -343 -31 -137 -95 -173 -354 -201
-3 0 27 -9 66 -19 133 -35 232 -100 265 -175 20 -45 66 -261 76 -354 3 -34 9
-58 13 -54 4 4 12 55 19 113 16 137 48 277 74 319 28 46 125 106 219 136 44
14 86 25 95 25 37 0 2 10 -68 20 -126 18 -179 37 -225 83 -37 37 -44 52 -62
132 -11 50 -25 140 -32 200 -14 129 -28 184 -29 118z m44 -319 c34 -130 63
-166 156 -199 49 -18 71 -34 63 -46 -3 -5 -31 -25 -62 -45 -105 -67 -127 -97
-157 -222 -9 -40 -22 -75 -27 -78 -18 -11 -35 20 -53 93 -27 114 -58 153 -177
227 -40 24 -35 41 21 65 94 40 138 94 160 199 13 65 28 95 44 89 7 -2 21 -39
32 -83z"/>
<path d="M680 797 c0 -55 -31 -172 -52 -194 -13 -14 -43 -27 -82 -35 l-61 -12
45 -11 c95 -25 114 -48 140 -178 19 -100 22 -99 40 13 16 108 44 141 138 165
l46 12 -49 8 c-62 9 -103 30 -115 58 -6 12 -16 59 -24 105 -14 85 -26 116 -26
69z m53 -201 c15 -19 27 -41 27 -47 0 -23 -52 -89 -70 -89 -10 0 -32 19 -49
41 -33 45 -31 59 12 107 28 31 47 28 80 -12z"/>
</g>
</svg>
